<svg xmlns="http://www.w3.org/2000/svg" version="1.0" viewBox="0 0 512 512"><defs/><path d="M193.5 57.5c-12.3 3.3-22.8 8-33.8 15.2l-6.9 4.4.7 7.2c.7 7.1 2.9 19.5 3.6 20.1.2.2 4.5-.7 9.4-2 10.7-2.7 20.4-3 29.4-.8 37.7 9.4 59.8 52.8 52.6 103.3-1.7 12.2-7 33-8.8 34.8-1.8 1.8-22.6 7.1-34.8 8.8-43.8 6.2-83.2-9.6-98.3-39.5-6.9-13.5-8.2-26.9-4.2-42.5 1.3-5 2.2-9.2 2-9.4-.6-.7-13-2.9-20.1-3.6l-7.2-.7-4.4 6.9c-8.6 13.3-15.6 30.8-16 39.7l-.2 5 6.5 4.8c3.6 2.7 12.9 9.9 20.7 16.1l14.1 11.2-.6 5c-.9 6.4-.9 23.6 0 30l.6 5-14.1 11.2c-7.8 6.2-17.1 13.4-20.7 16.1l-6.5 4.8.2 5c.4 8.9 7.4 26.4 16 39.7l4.4 6.9 7.2-.7c7.1-.7 19.5-2.9 20.1-3.6.2-.2-.7-4.5-2-9.4-2.7-10.7-3-20.4-.8-29.4 9.4-37.7 52.8-59.8 103.3-52.6 12.2 1.7 33 7 34.8 8.8 1.8 1.8 7.1 22.6 8.8 34.8 6.2 43.8-9.6 83.2-39.5 98.3-13.5 6.9-26.9 8.2-42.5 4.2-4.9-1.3-9.2-2.2-9.4-2-.7.6-2.9 13-3.6 20.1l-.7 7.2 6.9 4.4c13.3 8.6 30.8 15.6 39.7 16l5 .2 4.8-6.5c2.7-3.6 9.9-12.9 16.1-20.7l11.2-14.1 5 .6c6.4.9 23.6.9 30 0l5-.6 11.2 14.1c6.2 7.8 13.4 17.1 16.1 20.7l4.8 6.5 5-.2c8.9-.4 26.4-7.4 39.7-16l6.9-4.4-.7-7.2c-.7-7.1-2.9-19.5-3.6-20.1-.2-.2-4.4.7-9.4 2-10.7 2.7-20.4 3-29.4.8-37.7-9.4-59.8-52.8-52.6-103.3 1.7-12.2 7-33 8.8-34.8 1.8-1.8 22.6-7.1 34.8-8.8 43.8-6.2 83.2 9.6 98.3 39.5 6.9 13.5 8.2 26.9 4.2 42.5-1.3 4.9-2.2 9.2-2 9.4.6.7 13 2.9 20.1 3.6l7.2.7 4.4-6.9c8.6-13.3 15.6-30.8 16-39.7l.2-5-6.5-4.8c-3.6-2.7-12.9-9.9-20.7-16.1l-14.1-11.2.6-5c.9-6.4.9-23.6 0-30l-.6-5 14.1-11.2c7.8-6.2 17.1-13.4 20.7-16.1l6.5-4.8-.2-5c-.4-8.9-7.4-26.4-16-39.7l-4.4-6.9-7.2.7c-7.1.7-19.5 2.9-20.1 3.6-.2.2.7 4.4 2 9.4 2.7 10.7 3 20.4.8 29.4-9.4 37.7-52.8 59.8-103.3 52.6-12.2-1.7-33-7-34.8-8.8-1.8-1.8-7.1-22.6-8.8-34.8-6.2-43.8 9.6-83.2 39.5-98.3 13.5-6.9 26.9-8.2 42.5-4.2 5 1.3 9.2 2.2 9.4 2 .7-.6 2.9-13 3.6-20.1l.7-7.2-6.9-4.4c-13.3-8.6-30.8-15.6-39.7-16l-5-.2-4.8 6.5c-2.7 3.6-9.9 12.9-16.1 20.7l-11.2 14.1-5-.6c-6.4-.9-23.6-.9-30 0l-5 .6-11.2-14.1c-6.2-7.8-13.4-17.1-16-20.7-5.4-7.3-7.1-7.9-15.8-5.5z"/><path d="M171.3 146.4c-10.4 3.4-18.5 10.6-23.2 20.5-2.2 4.8-2.6 6.9-2.6 15.1 0 10.2 1.7 15.4 7.1 21.1l2.5 2.6 4.4-2.3c9.6-4.8 25.6-5.5 38.3-1.6l5.9 1.9-1.9-5.9c-3.9-12.7-3.2-28.7 1.6-38.3l2.3-4.4-2.6-2.5c-5.1-4.8-10.9-7-19.5-7.3-5-.2-9.7.2-12.3 1.1zM321.1 146.1c-4 1.2-7.6 3.4-11.2 6.6l-2.6 2.4 2.3 4.4c4.8 9.6 5.5 25.6 1.6 38.3l-1.9 5.9 5.9-1.9c12.7-3.9 28.7-3.2 38.3 1.6l4.4 2.3 2.5-2.6c5.4-5.7 7.1-10.9 7.1-21.1 0-8.7-.3-10.1-3.2-16.1-6.3-12.8-17.6-20.1-31.8-20.6-4.4-.1-9.5.2-11.4.8zM152.6 309.9c-5.4 5.7-7.1 10.9-7.1 21.1 0 8.7.3 10.1 3.2 16.1 3.9 7.9 10.2 14 18.1 17.7 4.9 2.3 7 2.7 15.2 2.7 10.2 0 15.4-1.7 21.1-7.1l2.6-2.5-2.3-4.4c-4.8-9.6-5.5-25.6-1.6-38.3l1.9-5.9-5.9 1.9c-12.7 3.9-28.7 3.2-38.3-1.6l-4.4-2.3-2.5 2.6zM354.4 309.2c-8.4 5-26.4 5.9-39 2l-6.1-1.9 1.9 5.9c3.9 12.7 3.2 28.7-1.6 38.3l-2.3 4.4 2.6 2.5c5.7 5.4 10.9 7.1 21.1 7.1 8.2 0 10.3-.4 15.2-2.7 7.9-3.7 14.2-9.8 18.1-17.7 2.9-6 3.2-7.4 3.2-16.1 0-8.1-.4-10.2-2.4-14.2-1.3-2.6-3.6-5.8-5-7.1-2.6-2.4-2.6-2.4-5.7-.5z"/></svg>